<svg width="1200" height="900" viewBox="0 0 1200 900" fill="none" xmlns="http://www.w3.org/2000/svg">
  <defs>
    <linearGradient id="bg" x1="104" y1="42" x2="1090" y2="860" gradientUnits="userSpaceOnUse">
      <stop stop-color="#CDEBFE"/>
      <stop offset="0.5" stop-color="#90DAF1"/>
      <stop offset="1" stop-color="#144A73"/>
    </linearGradient>
  </defs>
  <rect width="1200" height="900" rx="36" fill="url(#bg)"/>
  <path d="M154 798C266 650 430 572 606 572C770 572 922 662 1030 798H154Z" fill="#15587E"/>
  <path d="M420 628C420 506 506 402 618 402C730 402 812 506 812 624C812 738 730 816 620 816C502 816 420 736 420 628Z" fill="#F0D8D0"/>
  <path d="M394 590C394 462 492 330 646 330C766 330 834 436 822 590C810 654 786 700 752 732C714 694 660 664 600 664C540 664 480 688 450 734C418 694 394 648 394 590Z" fill="#1D5E86"/>
  <text x="112" y="150" fill="white" fill-opacity="0.84" font-size="28" font-family="Avenir Next, PingFang SC, Microsoft YaHei UI, sans-serif" letter-spacing="8">SUNNY</text>
  <text x="112" y="718" fill="white" fill-opacity="0.94" font-size="74" font-family="Avenir Next, PingFang SC, Microsoft YaHei UI, sans-serif">周燃</text>
  <text x="112" y="770" fill="white" fill-opacity="0.66" font-size="28" font-family="Avenir Next, PingFang SC, Microsoft YaHei UI, sans-serif">他不是很会绕弯，但会把陪伴稳稳地落在行动里。</text>
</svg>
