<svg width="960" height="1200" viewBox="0 0 960 1200" fill="none" xmlns="http://www.w3.org/2000/svg">
  <defs>
    <linearGradient id="bg" x1="130" y1="54" x2="842" y2="1120" gradientUnits="userSpaceOnUse">
      <stop stop-color="#C8EBFF"/>
      <stop offset="0.48" stop-color="#8CD7F2"/>
      <stop offset="1" stop-color="#114C78"/>
    </linearGradient>
  </defs>
  <rect width="960" height="1200" rx="42" fill="url(#bg)"/>
  <circle cx="724" cy="194" r="140" fill="rgba(255,255,255,0.28)"/>
  <path d="M222 1110C280 942 374 772 502 772C632 772 720 944 772 1110H222Z" fill="#14567F"/>
  <path d="M338 800C338 678 420 568 522 568C630 568 716 672 716 796C716 908 636 978 526 978C420 978 338 910 338 800Z" fill="#F1D8CE"/>
  <path d="M310 758C310 604 420 458 576 458C692 458 758 560 744 720C734 796 708 852 674 886C642 850 594 818 540 814C458 808 392 846 360 884C326 842 310 804 310 758Z" fill="#1E628A"/>
  <circle cx="448" cy="776" r="16" fill="#134863"/>
  <circle cx="590" cy="776" r="16" fill="#134863"/>
  <path d="M444 830C496 854 554 852 604 820" stroke="#C78A7F" stroke-width="12" stroke-linecap="round"/>
  <path d="M160 932C284 874 364 842 452 818" stroke="rgba(255,255,255,0.28)" stroke-width="18" stroke-linecap="round"/>
  <text x="118" y="150" fill="white" fill-opacity="0.88" font-size="34" font-family="Avenir Next, PingFang SC, Microsoft YaHei UI, sans-serif" letter-spacing="8">SUNNY</text>
  <text x="118" y="1080" fill="white" fill-opacity="0.94" font-size="60" font-family="Avenir Next, PingFang SC, Microsoft YaHei UI, sans-serif">周燃</text>
  <text x="118" y="1126" fill="white" fill-opacity="0.66" font-size="28" font-family="Avenir Next, PingFang SC, Microsoft YaHei UI, sans-serif">操场清风 · 明亮直接 · 更习惯用行动靠近你</text>
</svg>
