<svg width="960" height="1200" viewBox="0 0 960 1200" fill="none" xmlns="http://www.w3.org/2000/svg">
  <defs>
    <linearGradient id="bg" x1="120" y1="64" x2="840" y2="1140" gradientUnits="userSpaceOnUse">
      <stop stop-color="#FFD76B"/>
      <stop offset="0.44" stop-color="#FFB356"/>
      <stop offset="1" stop-color="#7A3512"/>
    </linearGradient>
  </defs>
  <rect width="960" height="1200" rx="42" fill="url(#bg)"/>
  <circle cx="728" cy="186" r="146" fill="rgba(255,245,224,0.42)"/>
  <path d="M214 1116C278 928 384 752 510 752C636 752 738 932 788 1116H214Z" fill="#8A4317"/>
  <path d="M336 786C336 662 424 552 526 552C632 552 714 654 714 782C714 894 636 966 530 966C420 966 336 898 336 786Z" fill="#FFD8C2"/>
  <path d="M310 746C310 588 418 456 564 456C680 456 758 544 746 690C734 758 706 796 670 824C640 782 596 754 544 754C470 754 404 788 370 834C326 798 310 774 310 746Z" fill="#64311E"/>
  <circle cx="452" cy="770" r="16" fill="#4F281D"/>
  <circle cx="598" cy="770" r="16" fill="#4F281D"/>
  <path d="M446 820C494 854 552 854 600 820" stroke="#D08364" stroke-width="14" stroke-linecap="round"/>
  <path d="M246 390L298 456" stroke="rgba(255,255,255,0.4)" stroke-width="18" stroke-linecap="round"/>
  <path d="M776 486L820 412" stroke="rgba(255,255,255,0.35)" stroke-width="18" stroke-linecap="round"/>
  <text x="116" y="150" fill="white" fill-opacity="0.88" font-size="34" font-family="Avenir Next, PingFang SC, Microsoft YaHei UI, sans-serif" letter-spacing="8">LIVELY</text>
  <text x="116" y="1080" fill="white" fill-opacity="0.94" font-size="60" font-family="Avenir Next, PingFang SC, Microsoft YaHei UI, sans-serif">许朝晞</text>
  <text x="116" y="1126" fill="white" fill-opacity="0.68" font-size="28" font-family="Avenir Next, PingFang SC, Microsoft YaHei UI, sans-serif">社团灯光 · 明亮热情 · 一句就能把空气点亮</text>
</svg>
