<svg width="960" height="1200" viewBox="0 0 960 1200" fill="none" xmlns="http://www.w3.org/2000/svg">
  <defs>
    <linearGradient id="bg" x1="120" y1="80" x2="840" y2="1100" gradientUnits="userSpaceOnUse">
      <stop stop-color="#FBD6C8"/>
      <stop offset="0.48" stop-color="#EED9D5"/>
      <stop offset="1" stop-color="#6B454E"/>
    </linearGradient>
    <radialGradient id="halo" cx="0" cy="0" r="1" gradientUnits="userSpaceOnUse" gradientTransform="translate(500 260) rotate(90) scale(380 340)">
      <stop stop-color="#FFF4ED" stop-opacity="0.95"/>
      <stop offset="1" stop-color="#FFF4ED" stop-opacity="0"/>
    </radialGradient>
  </defs>
  <rect width="960" height="1200" rx="42" fill="url(#bg)"/>
  <rect x="80" y="92" width="800" height="1016" rx="34" fill="rgba(255,255,255,0.08)" stroke="rgba(255,255,255,0.22)"/>
  <circle cx="520" cy="268" r="320" fill="url(#halo)"/>
  <path d="M248 1110C276 942 354 756 478 756C602 756 680 942 708 1110H248Z" fill="#6B4C53"/>
  <path d="M342 782C342 664 412 566 510 566C598 566 656 654 656 770C656 874 594 954 500 954C404 954 342 884 342 782Z" fill="#F4CFC5"/>
  <path d="M332 744C332 578 410 462 528 462C650 462 700 594 692 730C684 796 660 834 636 862C612 824 578 800 530 798C444 792 388 830 356 874C340 848 332 806 332 744Z" fill="#443142"/>
  <path d="M394 720C422 686 470 672 514 676C560 680 602 700 626 730" stroke="#8E6570" stroke-width="18" stroke-linecap="round"/>
  <path d="M442 810C482 836 532 838 572 810" stroke="#B97E81" stroke-width="14" stroke-linecap="round"/>
  <circle cx="442" cy="760" r="16" fill="#47303A"/>
  <circle cx="578" cy="760" r="16" fill="#47303A"/>
  <path d="M202 1070C316 918 440 838 548 824" stroke="rgba(255,255,255,0.25)" stroke-width="18" stroke-linecap="round"/>
  <text x="132" y="152" fill="white" fill-opacity="0.86" font-size="34" font-family="Avenir Next, PingFang SC, Microsoft YaHei UI, sans-serif" letter-spacing="8">HEALING</text>
  <text x="132" y="1080" fill="white" fill-opacity="0.9" font-size="60" font-family="Avenir Next, PingFang SC, Microsoft YaHei UI, sans-serif">林晚栀</text>
  <text x="132" y="1126" fill="white" fill-opacity="0.62" font-size="28" font-family="Avenir Next, PingFang SC, Microsoft YaHei UI, sans-serif">图书馆窗边 · 温柔治愈 · 会认真接住你</text>
</svg>
