<svg width="1200" height="900" viewBox="0 0 1200 900" fill="none" xmlns="http://www.w3.org/2000/svg">
  <defs>
    <linearGradient id="bg" x1="110" y1="42" x2="1080" y2="858" gradientUnits="userSpaceOnUse">
      <stop stop-color="#CBD5FF"/>
      <stop offset="0.54" stop-color="#90A2D0"/>
      <stop offset="1" stop-color="#2B3553"/>
    </linearGradient>
  </defs>
  <rect width="1200" height="900" rx="36" fill="url(#bg)"/>
  <rect x="86" y="70" width="1028" height="760" rx="28" fill="rgba(4,8,19,0.14)" stroke="rgba(255,255,255,0.16)"/>
  <path d="M178 798C282 650 438 558 602 558C760 558 902 652 1004 798H178Z" fill="#394865"/>
  <path d="M430 626C430 500 512 398 618 398C722 398 802 502 802 626C802 734 728 812 626 812C510 812 430 734 430 626Z" fill="#E8DBD7"/>
  <path d="M404 594C404 452 500 322 650 322C770 322 834 438 820 592C810 652 786 700 754 732C718 692 658 660 598 660C538 660 480 684 444 730C416 692 404 650 404 594Z" fill="#2B364F"/>
  <text x="120" y="150" fill="white" fill-opacity="0.84" font-size="28" font-family="Avenir Next, PingFang SC, Microsoft YaHei UI, sans-serif" letter-spacing="8">COOL</text>
  <text x="120" y="718" fill="white" fill-opacity="0.94" font-size="74" font-family="Avenir Next, PingFang SC, Microsoft YaHei UI, sans-serif">沈砚</text>
  <text x="120" y="770" fill="white" fill-opacity="0.66" font-size="28" font-family="Avenir Next, PingFang SC, Microsoft YaHei UI, sans-serif">克制外壳下面，是会默默提前站在楼下等你的人。</text>
</svg>
